<?xml version="1.0" encoding="utf-8"?>
<!-- Generator: Adobe Illustrator 19.0.0, SVG Export Plug-In . SVG Version: 6.00 Build 0)  -->
<svg version="1.1" id="Layer_1" xmlns="http://www.w3.org/2000/svg" xmlns:xlink="http://www.w3.org/1999/xlink" x="0px" y="0px"
	 viewBox="0 0 51.5 87.6" style="enable-background:new 0 0 51.5 87.6;" xml:space="preserve">
<style type="text/css">
	.st0{fill:#8A3F60;}
</style>
<g id="XMLID_3_">
	<path id="XMLID_161_" class="st0" d="M49.7,27.3c0-0.2,0-0.8-0.2-1.4c-0.2-0.6-0.5-1.3-1.2-1.7c-0.4-0.3-1-0.5-1.8-0.5h-0.9v-0.9
		c0-0.4,0-0.9-0.2-1.3c-0.2-0.4-0.6-0.9-1.7-1.2c-0.7-0.2-1.8-0.4-3.2-0.4h-0.9v-0.9c0-0.2,0-0.4,0-0.8c0-0.6-0.1-1.5-0.4-2.3
		c-0.3-0.8-0.9-1.5-2.1-2.1c-0.8-0.3-1.8-0.6-3.3-0.6h-0.9v-0.9c0-0.8-0.2-1.4-0.4-1.9c-0.2-0.5-0.6-1-1-1.3
		c-0.8-0.8-1.8-1.3-2.6-1.9c-1-0.8-1.9-2-2.7-3.1c-0.7-1.1-1.2-2-1.3-2l0.8-0.4l0.8,0.4c0,0-0.5,0.9-1.3,2c-0.7,1.1-1.7,2.3-2.7,3.1
		c-0.6,0.4-1.3,0.8-2,1.4c-0.7,0.5-1.2,1.1-1.6,1.9c-0.2,0.5-0.4,1.1-0.4,1.9v0.9h-0.9c-1.5,0-2.5,0.2-3.3,0.6
		c-0.8,0.3-1.3,0.8-1.6,1.3c-0.7,1-0.9,2.2-0.8,3.1c0,0.3,0,0.5,0,0.8V20H11c-2.1,0-3.4,0.4-4.1,0.8c-0.7,0.4-0.9,0.8-1,1.2
		c-0.1,0.3-0.1,0.6-0.1,0.8v0.9H5c-0.8,0-1.4,0.2-1.8,0.5c-0.4,0.3-0.7,0.6-0.9,1c-0.4,0.8-0.5,1.8-0.5,2.1l0,0.1l-0.3,0l0.3,0l0,0
		l-0.3,0l0.3,0l0,0v32.9l0,0l-0.3,0l0.3,0l0,0l-0.3,0l0.3,0l0,0l0,0.1c0,0.2,0,0.8,0.2,1.4c0.2,0.6,0.5,1.3,1.2,1.7
		c0.4,0.3,1,0.5,1.8,0.5h0.9v0.9c0,0.4,0,0.9,0.2,1.3c0.2,0.4,0.6,0.9,1.7,1.2c0.7,0.2,1.8,0.4,3.2,0.4h0.9v0.9c0,0.2,0,0.4,0,0.8
		c0,0.6,0.1,1.5,0.4,2.3c0.3,0.8,0.9,1.5,2.1,2.1c0.8,0.3,1.8,0.6,3.3,0.6h0.9v0.9c0,0.8,0.2,1.4,0.4,1.9c0.2,0.5,0.6,1,1,1.3
		c0.8,0.8,1.8,1.3,2.6,1.9c1,0.8,1.9,2,2.7,3.1c0.7,1.1,1.2,2,1.3,2l-0.8,0.4L25,85.4c0,0,0.5-0.9,1.3-2c0.7-1.1,1.7-2.3,2.7-3.1
		c0.6-0.4,1.3-0.8,2-1.4c0.7-0.5,1.2-1.1,1.6-1.9c0.2-0.5,0.4-1.1,0.4-1.9v-0.9h0.9c1.5,0,2.5-0.2,3.3-0.6c0.8-0.3,1.3-0.8,1.6-1.3
		c0.7-1,0.9-2.2,0.8-3.1c0-0.3,0-0.6,0-0.8v-0.9h0.9c2.1,0,3.4-0.4,4.1-0.8c0.7-0.4,0.9-0.8,1-1.2c0.1-0.3,0.1-0.6,0.1-0.8v-0.9h0.9
		c0.8,0,1.4-0.2,1.8-0.5c0.4-0.3,0.7-0.6,0.9-1c0.4-0.8,0.5-1.8,0.5-2.1l0-0.1l0.2,0l-0.2,0l0,0l0.2,0l-0.2,0l0,0L49.7,27.3h1.8
		l0,33h-0.9l0.9,0l0,0.1c0,0.3,0,1.1-0.3,2c-0.3,0.9-0.8,1.9-1.9,2.6c-0.7,0.5-1.6,0.7-2.8,0.7v-0.9h0.9c0,0.4,0,1.3-0.4,2.1
		c-0.4,0.9-1.3,1.7-2.8,2.1c-1,0.3-2.2,0.5-3.7,0.5v-0.9h0.9c0,0.1,0,0.4,0,0.8c0,0.7-0.1,1.9-0.6,3c-0.5,1.1-1.4,2.3-3,3
		c-1.1,0.5-2.4,0.7-4,0.7v-0.9h0.9c0,1-0.2,1.9-0.6,2.7c-0.3,0.8-0.8,1.4-1.3,1.9c-1,1-2.2,1.6-2.8,2.1c-0.6,0.4-1.4,1.4-2,2.3
		c-0.6,0.9-1.2,1.8-1.4,2.1c-0.1,0.1-0.1,0.1-0.1,0.1l-0.8,1.4L25,86.3c0,0,0,0-0.1-0.1c-0.1-0.1-0.1-0.2-0.2-0.4
		c-0.2-0.3-0.5-0.8-0.9-1.3c-0.7-1-1.6-2.2-2.3-2.6c-0.5-0.3-1.2-0.8-2-1.4c-0.8-0.6-1.6-1.4-2.1-2.5c-0.4-0.8-0.6-1.6-0.6-2.7h0.9
		v0.9c-1.6,0-3-0.3-4-0.7c-1.1-0.5-1.8-1.1-2.4-1.9c-1.1-1.5-1.2-3.1-1.2-4.1c0-0.4,0-0.7,0-0.8H11v0.9c-2.3,0-3.9-0.4-5-1
		c-1.1-0.6-1.6-1.6-1.8-2.4c-0.1-0.5-0.1-1-0.1-1.3H5v0.9c-1.1,0-2-0.3-2.8-0.7c-0.7-0.5-1.2-1.1-1.5-1.7C0,62,0,60.8,0,60.4l0-0.1
		l0.9,0H0V27.4h0.9l-0.9,0l0-0.1c0-0.3,0-1.1,0.3-2c0.3-0.9,0.8-1.9,1.9-2.6C2.9,22.2,3.8,22,5,22v0.9H4.1c0-0.4,0-1.3,0.4-2.1
		c0.4-0.9,1.3-1.7,2.8-2.1c1-0.3,2.2-0.5,3.7-0.5v0.9h-0.9c0-0.1,0-0.4,0-0.8c0-0.7,0.1-1.9,0.6-3c0.5-1.1,1.4-2.3,3-3
		c1.1-0.5,2.4-0.7,4-0.7v0.9h-0.9c0-1,0.2-1.9,0.6-2.7c0.3-0.8,0.8-1.4,1.3-1.9c1-1,2.2-1.6,2.8-2.1c0.6-0.4,1.4-1.4,2-2.3
		c0.6-0.9,1.2-1.8,1.4-2.1C24.9,1.5,25,1.4,25,1.4L25.7,0l0.8,1.4c0,0,0,0,0.1,0.1s0.1,0.2,0.2,0.4c0.2,0.3,0.5,0.8,0.9,1.3
		c0.7,1,1.6,2.2,2.3,2.6c0.5,0.3,1.2,0.8,2,1.4c0.8,0.6,1.6,1.4,2.1,2.5c0.4,0.8,0.6,1.6,0.6,2.7h-0.9v-0.9c1.6,0,3,0.3,4,0.7
		c1.1,0.5,1.8,1.1,2.4,1.9c1.1,1.5,1.2,3.1,1.2,4.1c0,0.4,0,0.7,0,0.8h-0.9v-0.9c2.3,0,3.9,0.4,5,1c1.1,0.6,1.6,1.6,1.8,2.4
		c0.1,0.5,0.1,1,0.1,1.3h-0.9V22c1.1,0,2,0.3,2.8,0.7c0.7,0.5,1.2,1.1,1.5,1.7c0.6,1.2,0.7,2.5,0.7,2.9H49.7z"/>
</g>
<line id="XMLID_14_" class="st0" x1="49.7" y1="27.3" x2="49.7" y2="27.3"/>
</svg>
