<?xml version="1.0" encoding="utf-8"?>
<!-- Generator: Adobe Illustrator 19.0.0, SVG Export Plug-In . SVG Version: 6.00 Build 0)  -->
<svg version="1.1" id="Layer_1" xmlns="http://www.w3.org/2000/svg" xmlns:xlink="http://www.w3.org/1999/xlink" x="0px" y="0px"
	 viewBox="-580.2 406.1 27.4 29" style="enable-background:new -580.2 406.1 27.4 29;" xml:space="preserve">
<style type="text/css">
	.st0{fill:#76C2A0;}
</style>
<image style="overflow:visible;enable-background:new    ;" width="614" height="41" id="XMLID_61_" xlink:href="EF8559C1.jpeg"  transform="matrix(0.9983 0 0 0.9755 -1384.4387 122.953)">
</image>
<g id="XMLID_495_">
	<path id="XMLID_500_" class="st0" d="M-553.1,426.2L-553.1,426.2c-0.7-3-2.2-5.4-4.7-7.5c-0.9-0.8-2.1-1.7-3.3-2.5
		c-2-1.5-4.1-3.1-5-4.2v-0.3c0.3-0.2,0.5-0.5,0.5-0.8s-0.2-0.6-0.5-0.8v-0.5c0.2-0.2,0.3-0.4,0.3-0.6s-0.1-0.5-0.3-0.6v-0.7
		c0.2-0.2,0.3-0.4,0.3-0.6c0-0.5-0.4-0.8-0.8-0.8c-0.5,0-0.8,0.4-0.8,0.8c0,0.3,0.1,0.5,0.3,0.6v0.7c-0.2,0.2-0.3,0.4-0.3,0.6
		s0.1,0.5,0.3,0.6v0.6c-0.3,0.2-0.5,0.5-0.5,0.8c0,0.3,0.2,0.6,0.5,0.8v0.3c-0.9,1.2-3,2.8-5.1,4.4c-1.1,0.8-2.1,1.6-3,2.3
		c-2.4,2.1-4,4.5-4.7,7.5c-0.6,2.6-0.1,8-0.1,8.3l0,0.5h0.5h12.3h13.5h0.5l0-0.5C-553,434.2-552.5,428.7-553.1,426.2z"/>
</g>
</svg>
