<?xml version="1.0" encoding="utf-8"?>
<!-- Generator: Adobe Illustrator 19.0.0, SVG Export Plug-In . SVG Version: 6.00 Build 0)  -->
<svg version="1.1" id="Layer_1" xmlns="http://www.w3.org/2000/svg" xmlns:xlink="http://www.w3.org/1999/xlink" x="0px" y="0px"
	 viewBox="0 0 522.2 82.7" style="enable-background:new 0 0 522.2 82.7;" xml:space="preserve">
<style type="text/css">
	.st0{fill:#8A3F60;}
</style>
<g id="XMLID_3_">
	<g id="XMLID_112_">
		<g id="XMLID_116_">
			<path id="XMLID_117_" class="st0" d="M424.4,0l53.3,0c0.1,0,4-0.2,6.7,2.3c1.2,1.1,1.9,2.5,2.1,4.3c3.8,0.6,5.9,3.7,6.2,9.6
				c1.9,0,5,0.4,7.5,2.7c1.9,1.9,3,4.6,3.2,8.1c4.7,0.6,7,4,8.5,6.3c0.3,0.4,0.5,0.8,0.8,1.2c1.5,2,5.8,4.7,7.3,5.5l2.3,1.3
				l-2.3,1.3c-1.5,0.9-5.8,3.5-7.3,5.5c-0.3,0.3-0.5,0.7-0.8,1.2c-1.5,2.3-3.8,5.7-8.5,6.3c-0.2,3.5-1.3,6.2-3.2,8.1
				c-2.4,2.3-5.5,2.7-7.5,2.7c-0.3,5.8-2.3,9-6.2,9.6c-0.2,1.7-1,3.1-2.1,4.3c-2.3,2.2-5.6,2.3-6.5,2.3c-0.1,0-0.2,0-0.2,0l-53.3,0
				l-0.1-3l0.1,0h49.9c0.1,0,2.9,0.1,4.6-1.5c0.9-0.8,1.3-2,1.3-3.5V73h1.5c1.5,0,4.6,0,4.6-8.2v-1.5h1.5c0.1,0,0.3,0,0.4,0
				c1.3,0,4.3,0.1,6.4-1.9c1.6-1.5,2.4-4,2.4-7.3v-1.5h3.5c4.1,0,7.3-2.7,8.9-5c0.3-0.5,0.6-0.9,0.9-1.3c1.4-1.8,4.1-3.8,6.1-5
				c-1.9-1.2-4.7-3.2-6.1-5c-0.3-0.4-0.6-0.8-0.9-1.3c-1.6-2.4-4.7-5-8.9-5H497v-1.5c0-3.4-0.8-5.8-2.4-7.3c-2.1-2-5.1-1.9-6.4-1.9
				c-0.2,0-0.3,0-0.4,0h-1.5v-1.5c0-8.2-3.1-8.2-4.6-8.2h-1.5V8c0-1.5-0.4-2.7-1.3-3.5c-1.7-1.6-1.1-1.5-1.1-1.5l-53.4,0"/>
		</g>
		<g id="XMLID_113_">
			<path id="XMLID_114_" class="st0" d="M424.9,3L44.5,3c0,0,0.5-0.1-1.1,1.5c-0.9,0.8-1.3,2-1.3,3.5v1.5h-1.5c-1.5,0-4.6,0-4.6,8.2
				v1.5h-1.5c-0.1,0-0.3,0-0.4,0c-1.3,0-4.3-0.1-6.4,1.9c-1.6,1.5-2.4,4-2.4,7.3v1.5h-3.5c-4.1,0-7.3,2.7-8.9,5
				c-0.3,0.5-0.6,0.9-0.9,1.3c-1.4,1.8-4.1,3.8-6.1,5c1.9,1.2,4.7,3.2,6.1,5c0.3,0.4,0.6,0.8,0.9,1.3c1.6,2.4,4.7,5,8.9,5h3.5v1.5
				c0,3.4,0.8,5.8,2.4,7.3c2.1,2,5.1,1.9,6.4,1.9c0.2,0,0.3,0,0.4,0H36v1.5c0,8.2,3.1,8.2,4.6,8.2h1.5v1.5c0,1.5,0.4,2.7,1.3,3.5
				c1.7,1.6,4.5,1.5,4.6,1.5h376.9l0.1,0l0.3,3l-380.6,0c0,0-0.1,0-0.2,0c-0.9,0-4.2-0.2-6.5-2.3c-1.2-1.1-1.9-2.5-2.1-4.3
				c-3.8-0.6-5.9-3.7-6.2-9.6c-1.9,0-5-0.4-7.5-2.7c-1.9-1.9-3-4.6-3.2-8.1c-4.7-0.6-7-4-8.5-6.3c-0.3-0.4-0.5-0.8-0.8-1.2
				c-1.5-2-5.8-4.7-7.3-5.5L0,41.3L2.3,40c1.5-0.9,5.8-3.5,7.3-5.5c0.3-0.3,0.5-0.7,0.8-1.2c1.5-2.3,3.8-5.7,8.5-6.3
				c0.2-3.5,1.3-6.2,3.2-8.1c2.4-2.3,5.5-2.7,7.5-2.7c0.3-5.8,2.3-9,6.2-9.6c0.2-1.7,1-3.1,2.1-4.3C40.5-0.2,44.5,0,44.5,0l380.3,0"
				/>
		</g>
	</g>
</g>
</svg>
